<svg width="8" height="27" viewBox="0 0 8 27" fill="none" xmlns="http://www.w3.org/2000/svg">
<path d="M7.67361 8.94067L1.08986 9.7658L0.854113 10.8583L2.14786 11.0969C2.99311 11.2982 3.15986 11.6029 2.97586 12.4453L0.854113 22.4158C0.296363 24.9947 1.15599 26.2079 3.17711 26.2079C4.74399 26.2079 6.56386 25.4834 7.38899 24.4887L7.64199 23.2927C7.06699 23.7987 6.22749 23.9999 5.66974 23.9999C4.87911 23.9999 4.59161 23.4451 4.79574 22.4676L7.67361 8.94067Z" fill="white"/>
<path d="M5 5.8125C6.58782 5.8125 7.875 4.52532 7.875 2.9375C7.875 1.34968 6.58782 0.0625 5 0.0625C3.41218 0.0625 2.125 1.34968 2.125 2.9375C2.125 4.52532 3.41218 5.8125 5 5.8125Z" fill="white"/>
</svg>
