<svg width="30" height="30" viewBox="0 0 30 30" fill="none" xmlns="http://www.w3.org/2000/svg">
<path fill-rule="evenodd" clip-rule="evenodd" d="M19.0235 8.71122C19.1106 8.62391 19.214 8.55464 19.3279 8.50738C19.4418 8.46012 19.5639 8.43579 19.6872 8.43579C19.8105 8.43579 19.9326 8.46012 20.0465 8.50738C20.1604 8.55464 20.2639 8.62391 20.351 8.71122L25.976 14.3362C26.0633 14.4233 26.1325 14.5268 26.1798 14.6407C26.2271 14.7546 26.2514 14.8767 26.2514 15C26.2514 15.1233 26.2271 15.2454 26.1798 15.3593C26.1325 15.4732 26.0633 15.5766 25.976 15.6637L20.351 21.2887C20.1749 21.4648 19.9362 21.5637 19.6872 21.5637C19.4383 21.5637 19.1995 21.4648 19.0235 21.2887C18.8474 21.1127 18.7485 20.8739 18.7485 20.625C18.7485 20.376 18.8474 20.1373 19.0235 19.9612L23.9866 15L19.0235 10.0387C18.9362 9.95163 18.8669 9.84818 18.8196 9.73428C18.7724 9.62038 18.748 9.49828 18.748 9.37497C18.748 9.25165 18.7724 9.12955 18.8196 9.01565C18.8669 8.90176 18.9362 8.7983 19.0235 8.71122Z" fill="#E63152"/>
<path fill-rule="evenodd" clip-rule="evenodd" d="M3.75 14.9999C3.75 14.7513 3.84877 14.5128 4.02459 14.337C4.2004 14.1612 4.43886 14.0624 4.6875 14.0624H24.375C24.6236 14.0624 24.8621 14.1612 25.0379 14.337C25.2137 14.5128 25.3125 14.7513 25.3125 14.9999C25.3125 15.2486 25.2137 15.487 25.0379 15.6629C24.8621 15.8387 24.6236 15.9374 24.375 15.9374H4.6875C4.43886 15.9374 4.2004 15.8387 4.02459 15.6629C3.84877 15.487 3.75 15.2486 3.75 14.9999Z" fill="#E63152"/>
</svg>
