<svg width="23" height="21" viewBox="0 0 23 21" fill="none" xmlns="http://www.w3.org/2000/svg">
<path d="M5.22118 21V6.83134H0.290885V21H5.22118ZM2.75667 4.89568C4.47595 4.89568 5.54612 3.8077 5.54612 2.44807C5.51409 1.05779 4.47602 0 2.7893 0C1.10284 0 0 1.05781 0 2.44807C0 3.80776 1.06991 4.89568 2.72448 4.89568H2.75652H2.75667ZM7.95008 21H12.8804V13.0875C12.8804 12.6641 12.9124 12.241 13.0426 11.9383C13.399 11.0923 14.2103 10.216 15.5722 10.216C17.3563 10.216 18.07 11.5153 18.07 13.42V20.9999H23V12.8757C23 8.52366 20.5677 6.4987 17.3238 6.4987C14.6641 6.4987 13.4963 7.91876 12.8476 8.88595H12.8805V6.83104H7.95019C8.0149 8.16055 7.95019 20.9997 7.95019 20.9997L7.95008 21Z" fill="black"/>
</svg>
