<svg width="34" height="34" viewBox="0 0 34 34" fill="none" xmlns="http://www.w3.org/2000/svg">
<path d="M30.8126 8.44357C29.7966 8.88185 28.691 9.19728 27.5521 9.32013C28.7345 8.61767 29.62 7.5079 30.0423 6.19904C28.9328 6.85908 27.7173 7.32191 26.4498 7.56701C25.92 7.00065 25.2792 6.54946 24.5675 6.24156C23.8557 5.93366 23.0882 5.77564 22.3126 5.77736C19.175 5.77736 16.6515 8.32072 16.6515 11.4418C16.6515 11.8801 16.7046 12.3184 16.791 12.7401C12.0927 12.4943 7.90249 10.2498 5.11675 6.8133C4.60916 7.68028 4.34316 8.66744 4.34644 9.67208C4.34644 11.6377 5.34585 13.3709 6.86987 14.3902C5.97174 14.3549 5.09464 14.108 4.30991 13.6697V13.7395C4.30991 16.492 6.25562 18.7731 8.84878 19.2977C8.36188 19.4241 7.86101 19.4888 7.35796 19.4902C6.9894 19.4902 6.64077 19.4537 6.28882 19.4039C7.00601 21.6485 9.09448 23.2787 11.5814 23.3319C9.63569 24.8559 7.19858 25.7524 4.5523 25.7524C4.07749 25.7524 3.63921 25.7358 3.18433 25.6826C5.69448 27.293 8.6728 28.2227 11.8802 28.2227C22.2927 28.2227 27.9904 19.5965 27.9904 12.1092C27.9904 11.8635 27.9904 11.6178 27.9738 11.3721C29.0761 10.5652 30.0423 9.56583 30.8126 8.44357Z" fill="black"/>
</svg>
