<svg width="58" height="59" viewBox="0 0 58 59" fill="none" xmlns="http://www.w3.org/2000/svg">
<path d="M55.2402 0.661621H2.30167C1.02856 0.661621 0 1.68731 0 2.95687V55.7475C0 57.017 1.02856 58.0427 2.30167 58.0427H55.2402C56.5133 58.0427 57.5418 57.017 57.5418 55.7475V2.95687C57.5418 1.68731 56.5133 0.661621 55.2402 0.661621ZM48.5941 17.4097H43.9979C40.3944 17.4097 39.6967 19.1168 39.6967 21.6272V27.1573H48.2992L47.1771 35.8147H39.6967V58.0427H30.7273V35.8219H23.2253V27.1573H30.7273V20.7737C30.7273 13.3644 35.2659 9.32617 41.8976 9.32617C45.0768 9.32617 47.8029 9.56287 48.6013 9.67045V17.4097H48.5941Z" fill="white"/>
</svg>
