<svg width="58" height="59" viewBox="0 0 58 59" fill="none" xmlns="http://www.w3.org/2000/svg">
<path d="M55.7015 0.699463H2.83282C1.56138 0.699463 0.53418 1.7238 0.53418 2.99168V55.7127C0.53418 56.9806 1.56138 58.0049 2.83282 58.0049H55.7015C56.9729 58.0049 58.0001 56.9806 58.0001 55.7127V2.99168C58.0001 1.7238 56.9729 0.699463 55.7015 0.699463ZM17.58 49.5309H9.05351V22.1818H17.58V49.5309ZM13.3204 18.4427C12.3429 18.4427 11.3874 18.1536 10.5747 17.6121C9.76197 17.0706 9.12853 16.3009 8.75447 15.4004C8.38042 14.4998 8.28255 13.5089 8.47324 12.5529C8.66393 11.5969 9.13462 10.7188 9.82578 10.0296C10.5169 9.34035 11.3975 8.87098 12.3562 8.68082C13.3149 8.49066 14.3086 8.58826 15.2116 8.96126C16.1146 9.33427 16.8865 9.96594 17.4295 10.7764C17.9726 11.5868 18.2624 12.5397 18.2624 13.5144C18.2552 16.2364 16.0428 18.4427 13.3204 18.4427ZM49.5024 49.5309H40.983V36.2288C40.983 33.0555 40.9256 28.9797 36.551 28.9797C32.1189 28.9797 31.4365 32.4323 31.4365 35.9996V49.5309H22.9244V22.1818H31.0989V25.921H31.2138C32.3488 23.7721 35.1287 21.5013 39.2806 21.5013C47.9149 21.5013 49.5024 27.1674 49.5024 34.5312V49.5309Z" fill="white"/>
</svg>
