<svg width="55" height="72" viewBox="0 0 55 72" fill="none" xmlns="http://www.w3.org/2000/svg">
<path fill-rule="evenodd" clip-rule="evenodd" d="M27.3312 71.7783C27.3312 71.7783 54.0393 46.4678 54.0393 27.2647C54.0393 20.1812 51.2255 13.3879 46.2167 8.37915C41.208 3.3704 34.4146 0.556519 27.3312 0.556519C20.2478 0.556519 13.4544 3.3704 8.44568 8.37915C3.43693 13.3879 0.623047 20.1812 0.623047 27.2647C0.623047 46.4678 27.3312 71.7783 27.3312 71.7783ZM27.3312 40.6187C30.8729 40.6187 34.2696 39.2118 36.774 36.7074C39.2783 34.2031 40.6853 30.8064 40.6853 27.2647C40.6853 23.7229 39.2783 20.3263 36.774 17.8219C34.2696 15.3175 30.8729 13.9106 27.3312 13.9106C23.7895 13.9106 20.3928 15.3175 17.8884 17.8219C15.3841 20.3263 13.9771 23.7229 13.9771 27.2647C13.9771 30.8064 15.3841 34.2031 17.8884 36.7074C20.3928 39.2118 23.7895 40.6187 27.3312 40.6187Z" fill="#FFF5F5"/>
</svg>
