<svg width="58" height="59" viewBox="0 0 58 59" fill="none" xmlns="http://www.w3.org/2000/svg">
<path d="M55.3392 0.699463H2.47051C1.19908 0.699463 0.171875 1.7238 0.171875 2.99168V55.7127C0.171875 56.9806 1.19908 58.0049 2.47051 58.0049H55.3392C56.6106 58.0049 57.6378 56.9806 57.6378 55.7127V2.99168C57.6378 1.7238 56.6106 0.699463 55.3392 0.699463ZM44.3704 21.4512C44.3919 21.7879 44.3919 22.1389 44.3919 22.4827C44.3919 32.9982 36.3611 45.1112 21.6857 45.1112C17.1602 45.1112 12.9652 43.8003 9.43108 41.5439C10.0776 41.6155 10.6953 41.6442 11.3562 41.6442C15.0915 41.6442 18.5251 40.3835 21.2619 38.2488C17.7565 38.1772 14.8113 35.885 13.8057 32.7332C15.034 32.9123 16.1402 32.9123 17.4045 32.5899C15.5995 32.2243 13.9772 31.2467 12.8131 29.8234C11.649 28.4001 11.0149 26.6188 11.0186 24.7821V24.6818C12.0745 25.2763 13.3172 25.6417 14.6174 25.6918C13.5244 24.9654 12.628 23.9813 12.0078 22.8267C11.3875 21.6722 11.0626 20.3828 11.0617 19.073C11.0617 17.5902 11.4496 16.2364 12.1463 15.0616C14.1498 17.521 16.6497 19.5325 19.4838 20.9653C22.3178 22.3981 25.4225 23.2202 28.596 23.3781C27.4682 17.9699 31.5196 13.5932 36.3898 13.5932C38.6884 13.5932 40.7572 14.5531 42.2154 16.1003C44.0184 15.7636 45.7424 15.0903 47.2796 14.1877C46.6834 16.0287 45.4335 17.5831 43.7742 18.5644C45.3832 18.3925 46.9348 17.9484 48.3714 17.3252C47.2868 18.9154 45.9291 20.3266 44.3704 21.4512V21.4512Z" fill="white"/>
</svg>
